<?xml version="1.0" encoding="iso-8859-1"?>
<!-- Generator: Adobe Illustrator 19.0.0, SVG Export Plug-In . SVG Version: 6.00 Build 0)  -->
<svg version="1.1" id="Layer_1" xmlns="http://www.w3.org/2000/svg" xmlns:xlink="http://www.w3.org/1999/xlink" x="0px" y="0px"
	 viewBox="0 0 512 512" style="enable-background:new 0 0 512 512;" xml:space="preserve">
<path style="fill:#BFAB92;" d="M425.376,240.854c-3.254-14.735-8.879-25.14-11.937-30.027c5.654-25.888,1.977-52.22-10.716-76.368
	c-7.292-13.873-15.661-23.455-19.82-27.775c0.59-30.722-13.542-47.631-25.763-56.469c-9.235-6.68-18.674-9.735-23.973-11.033
	c-15.423-31.419-39.149-30.081-48.772-27.989c-14.759-9.537-28.751-13.005-41.638-10.306c-12.065,2.526-19.785,9.912-23.427,14.269
	c-4.891-0.524-16.402-1.026-28.92,3.602c-14.372,5.315-32.736,18.467-40.432,50.802c-4.867,2.041-12.608,6.355-19.936,14.99
	c-13.841,16.31-19.777,40.031-17.708,70.525c-22.431,16.481-33.256,47.771-25.857,76.359c2.281,8.813,6.699,17.959,12.503,27.111
	c-3.065,5.115-7.886,14.286-11.197,26.026c-6.827,24.197-4.027,47.913,8.098,68.581c5.926,10.102,14.656,20.233,24.753,29.944
	c-3.873,38.733,14.317,71.951,52.804,96.26c27.72,17.509,56.447,24.446,60.273,25.319c14.595,4.882,28.342,7.323,41.172,7.323
	c16.123,0,30.8-3.852,43.892-11.548c35.783-21.035,47.607-63.806,50.1-74.706c35.291-34.449,42.76-92.162,43.84-102.537
	C430.494,288.461,429.449,259.294,425.376,240.854z"/>
<g>
	<path style="fill:#B39A7C;" d="M244.632,425.512c-17.76-10.845-107.449-66.81-129.02-103.594
		c-8.841-15.066-11.904-31.566-9.106-49.041l1.105-6.902l4.309,5.503c32.686,41.736,86.878,79.89,89.169,81.494
		c1.916,1.432,45.427,33.925,75.221,50.436l4.529,2.51l-4.389,2.746c-10.215,6.389-19.892,12.083-28.766,16.923l-1.547,0.843
		L244.632,425.512z"/>
	<path style="fill:#B39A7C;" d="M256.086,482.421c-15.936-5.641-61.57-22.992-81.081-35.377
		c-21.163-13.443-35.407-29.534-42.335-47.829l-0.161-0.425l-0.031-0.455c-0.042-0.643-0.074-1.286-0.097-1.929l-0.227-6.805
		l5.23,4.36c34.831,29.034,76.239,51.495,80.846,53.961l2.283,1.211l0.898,0.403c8.439,4.267,29.968,14.95,47.565,21.978
		l6.332,2.529l-6.105,3.036c-3.317,1.65-6.847,3.358-10.794,5.223l-1.137,0.537L256.086,482.421z"/>
	<path style="fill:#B39A7C;" d="M248.751,121.611c-30.606-26.265-58.717-52.289-66.605-59.638l-1.306-1.217l0.421-1.735
		c2.827-11.65,7.464-21.244,13.781-28.516l0.546-0.63l0.79-0.263c6.486-2.168,12.475-2.623,16.357-2.623
		c1.303,0,2.59,0.049,3.826,0.146l1.324,0.105l0.827,1.04c7.343,9.25,33.497,41.134,61.733,63.101l2.768,2.153l-2.516,2.443
		c-8.314,8.075-17.72,16.694-27.956,25.617l-1.989,1.734L248.751,121.611z"/>
	<path style="fill:#B39A7C;" d="M254.748,218.907c-38.249-29.112-97.76-85.66-106.003-94.907l-0.684-0.768l-0.08-1.026
		c-1.116-14.395-0.322-27.222,2.357-38.125l0.334-1.356l1.244-0.634c0.533-0.273,1.034-0.523,1.503-0.74l1.864-0.867l1.504,1.401
		c9.717,9.056,44.069,40.833,78.13,69.469l0.286,0.244c20.031,16.835,36.721,29.876,49.61,38.765l3.126,2.156l-2.779,2.588
		c-9.46,8.81-18.408,16.784-26.592,23.702l-1.869,1.579L254.748,218.907z"/>
	<path style="fill:#B39A7C;" d="M235.799,327.113c-11.049-8.424-108.274-83.59-119.837-128.277
		c-2.502-9.647-2.517-20.104-0.04-30.238l0.229-0.94l0.729-0.637c0.149-0.131,0.275-0.238,0.398-0.334l2.242-1.742l1.899,2.111
		c14.001,15.568,126.018,115.051,155.595,132.347l4.278,2.503l-4.162,2.693c-13.303,8.609-26.096,16.269-38.02,22.766l-1.737,0.947
		L235.799,327.113z"/>
	<path style="fill:#B39A7C;" d="M273.046,73.217c-4.545-4.083-9.357-8.685-14.305-13.679l-2.094-2.113l2.059-2.147
		c10.056-10.478,22.818-26.5,26.492-31.161l0.639-0.81l1-0.256c1.73-0.444,3.524-0.698,5.33-0.756l1.311-0.042l0.932,0.922
		c3.477,3.442,6.606,7.928,9.301,13.337l0.725,1.457l-0.805,1.415c-5.361,9.408-14.216,20.728-26.317,33.648l-2.043,2.181
		L273.046,73.217z"/>
	<path style="fill:#B39A7C;" d="M248.12,48.426c-8.213-8.903-14.927-16.869-19.113-21.985l-1.62-1.98l1.667-1.94
		c2.498-2.907,7.955-8.037,16.446-9.739c1.889-0.378,3.857-0.571,5.85-0.571c6.755,0,14.121,2.191,21.895,6.512l3.166,1.759
		l-2.271,2.82c-5.965,7.407-14.548,17.783-21.567,25.157l-2.245,2.358L248.12,48.426z"/>
	<path style="fill:#B39A7C;" d="M245.957,373.599c-8.938-6.047-18.572-12.799-28.633-20.068l-4.265-3.081l4.793-2.171
		c73.35-33.221,158.731-104.925,183.151-126.11l4.622-4.01l0.421,6.105c1.338,19.448-3.226,39.565-13.569,59.791l-0.294,0.576
		l-0.502,0.407c-4.051,3.279-28.959,18.56-60.491,37.906c-26.607,16.324-56.762,34.826-81.892,50.708l-1.687,1.066L245.957,373.599z
		"/>
	<path style="fill:#B39A7C;" d="M268.865,167.16c-7.746-6.044-16.362-13.04-25.61-20.794l-2.807-2.354l2.823-2.335
		c19.638-16.24,67.318-57.39,85.887-88.671l1.201-2.022l2.262,0.646c1.438,0.411,2.988,0.932,4.607,1.546l0.931,0.353l0.543,0.834
		c6.03,9.253,8.935,20.683,8.639,33.973l-0.024,1.139l-0.766,0.844c-9.131,10.057-41.426,45.306-73.683,76.626l-1.907,1.851
		L268.865,167.16z"/>
	<path style="fill:#B39A7C;" d="M251.055,271.07c-6.568-4.873-13.18-10.067-19.655-15.438l-3.187-2.643l3.469-2.261
		c48.034-31.313,120.331-108.8,141.345-131.803l3.428-3.753l1.699,4.791c6.273,17.684,7.337,35.999,3.161,54.436l-0.219,0.964
		l-0.741,0.653c-8.913,7.842-73.036,59.085-125.759,95.123l-1.794,1.227L251.055,271.07z"/>
	<path style="fill:#B39A7C;" d="M264.081,459.565c-10.018-4.329-20.336-9.234-27.227-12.586l-5.643-2.746l5.645-2.742
		c51.89-25.206,118.874-75.493,154.185-103.226l8.369-6.574l-3.616,10.009c-7.691,21.292-18.069,38.109-30.845,49.983
		c-16.815,15.628-69.068,49.806-98.055,67.678l-1.353,0.834L264.081,459.565z"/>
</g>
<g>
	<path style="fill:#BFAB92;" d="M377.238,185.566l10.745,10.829c-0.134,0.132-3.329,3.301-8.6,8.359l-10.561-11.007
		C373.989,188.786,377.205,185.597,377.238,185.566z"/>
	<path style="fill:#BFAB92;" d="M367.311,216.166c-15.77,14.683-38.173,34.642-55.337,46.331l-8.586-12.609
		c16.372-11.149,38.145-30.564,53.529-44.887L367.311,216.166z"/>
</g>
<path d="M413.439,210.827c5.654-25.888,1.977-52.22-10.716-76.368c-7.292-13.873-15.661-23.455-19.82-27.775
	c0.59-30.722-13.542-47.631-25.763-56.469c-9.235-6.68-18.674-9.735-23.973-11.033c-15.423-31.419-39.149-30.081-48.772-27.989
	c-14.759-9.537-28.751-13.005-41.638-10.306c-12.065,2.526-19.785,9.912-23.427,14.269c-4.891-0.524-16.402-1.026-28.92,3.602
	c-14.372,5.315-32.736,18.467-40.432,50.802c-4.867,2.041-12.608,6.355-19.936,14.99c-13.841,16.31-19.777,40.031-17.708,70.525
	c-22.431,16.481-33.257,47.771-25.857,76.359c2.281,8.813,6.699,17.959,12.503,27.111c-3.065,5.115-7.886,14.287-11.197,26.026
	c-6.827,24.197-4.027,47.913,8.098,68.581c5.926,10.102,14.656,20.233,24.753,29.944c-3.873,38.733,14.317,71.951,52.804,96.26
	c27.72,17.509,56.447,24.446,60.273,25.319c14.595,4.882,28.342,7.323,41.172,7.323c16.123,0,30.8-3.852,43.892-11.548
	c35.783-21.035,47.607-63.806,50.1-74.706c35.291-34.449,42.76-92.162,43.84-102.537c17.778-34.748,16.734-63.915,12.661-82.355
	C422.122,226.118,416.497,215.714,413.439,210.827z M389.474,142.046c11.051,21.283,14.05,43.532,8.926,66.169
	c-9.481,8.348-55.673,48.424-108.656,84.36c-22.642-12.266-44.962-29.797-56.395-39.286
	c48.403-31.557,121.181-109.595,141.925-132.3C379.172,125.535,384.63,132.718,389.474,142.046z M331.785,54.565
	c11.099,3.207,36.695,14.673,35.864,52.129c-7.741,8.53-38.844,42.461-73.228,75.451c-13.855-9.304-31.43-23.222-49.211-38.115
	C267.311,125.755,313.27,85.74,331.785,54.565z M287.598,26.007c5.31-1.371,20.523-2.899,31.736,19.626
	c-6.487,11.385-17.542,24.481-29.893,37.276c-9.928-7.573-19.73-16.62-28.539-25.514C270.822,47.054,283.361,31.373,287.598,26.007z
	 M246.1,15.774c7.611-1.523,16.22,0.368,25.663,5.617c-5.501,6.831-14.302,17.512-21.401,24.967
	c-8.129-8.81-14.784-16.703-18.994-21.849C233.652,21.85,238.526,17.291,246.1,15.774z M216.323,30.172
	c7.359,9.278,33.671,41.386,62.253,63.616c-17.029,16.541-34.666,31.525-45.212,40.208c-30.419-26.034-59.148-52.567-68.471-61.245
	C175.201,30.247,206.84,29.42,216.323,30.172z M154.705,84.116c10.765,10.035,44.404,41.121,78.243,69.578l0.118,0.152
	c0.01-0.008,0.021-0.016,0.033-0.024c17.694,14.875,35.436,29.024,49.978,39.055c-22.105,20.59-44.652,39.647-62.515,50.45
	c-34.268-22.634-83.332-76.863-92.904-87.6C123.629,103.841,145.826,88.244,154.705,84.116z M119.148,169.101
	c14.988,16.663,95.352,90.509,156.318,132.936c-23.589,15.265-47.965,29.133-70.633,38.598
	c-16.893-12.341-92.309-69.444-103.588-113.021C95.725,206.285,103.351,182.305,119.148,169.101z M109.038,345.434
	c-10.032-17.1-12.289-36.018-6.711-56.23c1.837-6.656,4.268-12.389,6.454-16.781c32.477,41.92,86.765,80.393,90.553,83.053
	c3.035,2.268,45.927,34.215,75.5,50.604c-19.051,11.907-37.746,22.378-53.996,29.345
	C204.783,426.481,131.899,384.401,109.038,345.434z M181.266,466.258c-29.434-18.692-44.79-42.175-45.831-69.952
	c35.683,29.744,78.754,52.912,81.359,54.303l3.156,1.684l0.084-0.035c8.105,4.095,30.066,15.003,47.806,22.084
	c-15.643,7.777-27.886,12.991-32.691,14.978C227.856,487.452,203.83,480.588,181.266,466.258z M310.964,487.347
	c-14.608,8.561-31.924,11.251-51.664,8.071c21.68-9.978,56.62-27.718,87.037-50.684
	C339.874,459.255,328.856,476.863,310.964,487.347z M356.714,416.266c-20.639,19.178-47.176,35.835-70.384,48.461
	c-11.202-3.094-32.493-12.879-48.137-20.49c54.22-26.345,125.434-80.491,156.471-104.947
	C390.262,360.486,379.901,394.72,356.714,416.266z M399.217,316.123c-8.352,6.766-58.334,46.898-109.608,80.492
	c-20.239-9.886-53.491-33.267-70.495-45.562c74.04-33.538,159.487-105.383,184.295-126.938c2.42,4.798,5.342,11.857,7.233,20.772
	C415.502,267.807,411.659,291.766,399.217,316.123z"/>
<g>
	<path style="fill:#D9CCBC;" d="M385.091,197.865l-10.366-11.192c-0.033,0.031-3.356,3.106-8.692,7.886l10.176,11.364
		C381.65,201.051,384.953,197.993,385.091,197.865z"/>
	<path style="fill:#D9CCBC;" d="M257.052,98.381l-10.743-10.829c-0.032,0.032-3.248,3.221-8.417,8.181l10.562,11.006
		C253.723,101.682,256.917,98.514,257.052,98.381z"/>
	<path style="fill:#D9CCBC;" d="M288.317,62.779c5.269-5.058,8.464-8.226,8.598-8.359l-10.746-10.828
		c-0.032,0.032-3.247,3.221-8.415,8.181L288.317,62.779z"/>
	<path style="fill:#D9CCBC;" d="M191.999,73.992l10.565,11.005c5.268-5.058,8.463-8.224,8.597-8.358L200.416,65.81
		C200.385,65.842,197.168,69.031,191.999,73.992z"/>
	<path style="fill:#D9CCBC;" d="M306.855,261.314c17.555-11.092,40.632-30.268,56.898-44.4l-10.004-11.516
		c-15.867,13.785-38.296,32.439-55.042,43.019L306.855,261.314z"/>
	<path style="fill:#D9CCBC;" d="M184.156,267.311l9.016-12.306c-4.76-3.487-32.387-28.211-49.796-43.978l-10.24,11.307
		C137.627,226.403,177.229,262.237,184.156,267.311z"/>
	<path style="fill:#D9CCBC;" d="M287.05,361.268l8.48,12.681c3.724-2.491,36.573-24.51,43.102-30.805l-10.588-10.982
		C323.864,336.192,300.681,352.153,287.05,361.268z"/>
	<path style="fill:#D9CCBC;" d="M217.683,302.749l-10.745-10.829c-0.032,0.032-3.248,3.221-8.416,8.181l10.564,11.006
		C214.353,306.051,217.548,302.882,217.683,302.749z"/>
	<path style="fill:#D9CCBC;" d="M356.832,275.491l10.563,11.006c5.269-5.057,8.463-8.225,8.598-8.358l-10.745-10.829
		C365.216,267.342,362,270.53,356.832,275.491z"/>
	<path style="fill:#D9CCBC;" d="M352.578,310.346l10.564,11.006c5.269-5.056,8.463-8.224,8.598-8.357l-10.744-10.83
		C360.964,302.196,357.746,305.385,352.578,310.346z"/>
	<path style="fill:#D9CCBC;" d="M136.441,337.05l10.562,11.006c5.27-5.056,8.464-8.224,8.598-8.358l-10.744-10.829
		C144.825,328.901,141.61,332.09,136.441,337.05z"/>
	<path style="fill:#D9CCBC;" d="M187.429,394.623l10.563,11.006c5.269-5.057,8.464-8.225,8.598-8.358l-10.744-10.829
		C195.814,386.474,192.599,389.662,187.429,394.623z"/>
	<path style="fill:#D9CCBC;" d="M308.45,438.22l-10.746-10.828c-0.032,0.032-3.246,3.221-8.416,8.181l10.561,11.007
		C305.121,441.523,308.317,438.353,308.45,438.22z"/>
	<path style="fill:#D9CCBC;" d="M357.793,393.136l-10.745-10.828c-0.032,0.032-3.247,3.22-8.416,8.18l10.564,11.006
		C354.464,396.437,357.66,393.268,357.793,393.136z"/>
	<path style="fill:#D9CCBC;" d="M252.799,192.26l-10.745-10.828c-0.032,0.032-3.247,3.22-8.416,8.181l10.563,11.006
		C249.469,195.561,252.664,192.392,252.799,192.26z"/>
	<path style="fill:#D9CCBC;" d="M184.226,173.524l-10.744-10.829c-0.032,0.032-3.248,3.221-8.417,8.181l10.562,11.006
		C180.897,176.825,184.092,173.656,184.226,173.524z"/>
	<path style="fill:#D9CCBC;" d="M313.053,140.793l-10.745-10.828c-0.032,0.032-3.247,3.22-8.416,8.18l10.561,11.007
		C309.725,144.095,312.919,140.926,313.053,140.793z"/>
	<path style="fill:#D9CCBC;" d="M347.349,115.17l-10.745-10.828c-0.032,0.032-3.247,3.22-8.416,8.18l10.561,11.007
		C344.02,118.471,347.215,115.302,347.349,115.17z"/>
</g>
<g>
</g>
<g>
</g>
<g>
</g>
<g>
</g>
<g>
</g>
<g>
</g>
<g>
</g>
<g>
</g>
<g>
</g>
<g>
</g>
<g>
</g>
<g>
</g>
<g>
</g>
<g>
</g>
<g>
</g>
</svg>
