<?xml version="1.0" encoding="iso-8859-1"?>
<!-- Generator: Adobe Illustrator 19.0.0, SVG Export Plug-In . SVG Version: 6.00 Build 0)  -->
<svg version="1.1" id="Layer_1" xmlns="http://www.w3.org/2000/svg" xmlns:xlink="http://www.w3.org/1999/xlink" x="0px" y="0px"
	 viewBox="0 0 512 512" style="enable-background:new 0 0 512 512;" xml:space="preserve">
<path style="fill:#FFBF1F;" d="M504.957,278.266H7.043C2.435,296.118,0,314.755,0,333.915c0,0,83.479,82.079,256,82.079
	s256-82.079,256-82.079C512,314.755,509.565,296.118,504.957,278.266z"/>
<path style="fill:#2A4B66;" d="M504.957,278.266c0,0-81.18,82.079-248.957,82.079S7.043,278.266,7.043,278.266
	c20.181-78.277,82.002-141.509,162.481-168.346l14.551,2.214l10.691-9.281c19.62-4.475,40.129-6.848,61.234-6.848
	c21.102,0,41.61,2.373,61.227,6.847l10.697,9.282l14.553-2.214C422.956,136.759,484.776,199.989,504.957,278.266z"/>
<path style="fill:#B8C7D2;" d="M263.64,231.795c12.468-19.253,23.736-38.126,34.579-57.094c22.607,1.143,45.177,3.197,67.648,6.177
	c0.402,0.052,0.801,0.079,1.199,0.079c3.019,0,5.877-1.504,7.576-4.062c1.925-2.895,2.033-6.633,0.28-9.634
	c-11.828-20.235-22.537-39.371-32.447-57.337c-8.227-2.743-16.65-5.103-25.243-7.062c-1.488,2.717-2.971,5.424-4.442,8.11
	c-8.366,15.286-16.548,30.23-24.901,45.048c-21.251-0.794-42.527-0.796-63.779-0.003c-8.36-14.831-16.549-29.787-24.923-45.087
	c-1.463-2.673-2.938-5.366-4.419-8.069c-8.593,1.96-17.015,4.319-25.243,7.062c-9.919,17.981-20.631,37.123-32.447,57.336
	c-1.753,3.001-1.645,6.739,0.28,9.634c1.924,2.896,5.334,4.438,8.776,3.983c22.47-2.98,45.038-5.042,67.642-6.184
	c10.845,18.971,22.115,37.845,34.584,57.102c1.678,2.591,4.553,4.155,7.64,4.155S261.962,234.386,263.64,231.795z M327.925,121.238
	c6.94,12.564,14.276,25.692,22.117,39.377c-13.922-1.543-27.876-2.733-41.845-3.589
	C314.784,145.229,321.302,133.336,327.925,121.238z M203.798,157.018c-13.967,0.856-27.919,2.054-41.839,3.597
	c7.837-13.675,15.172-26.806,22.117-39.377C190.696,133.334,197.213,145.224,203.798,157.018z M234.329,173.908
	c14.443-0.374,28.895-0.366,43.338,0.008c-6.948,11.988-14.105,23.948-21.667,35.998
	C248.437,197.861,241.279,185.898,234.329,173.908z"/>
<g>
</g>
<g>
</g>
<g>
</g>
<g>
</g>
<g>
</g>
<g>
</g>
<g>
</g>
<g>
</g>
<g>
</g>
<g>
</g>
<g>
</g>
<g>
</g>
<g>
</g>
<g>
</g>
<g>
</g>
</svg>
