<?xml version="1.0" encoding="iso-8859-1"?>
<!-- Generator: Adobe Illustrator 19.0.0, SVG Export Plug-In . SVG Version: 6.00 Build 0)  -->
<svg version="1.1" id="Layer_1" xmlns="http://www.w3.org/2000/svg" xmlns:xlink="http://www.w3.org/1999/xlink" x="0px" y="0px"
	 viewBox="0 0 512 512" style="enable-background:new 0 0 512 512;" xml:space="preserve">
<path style="fill:#FFECD9;" d="M84.073,409.621c-13.127,0-16.034,22.675-16.034,35.802v34.317c0,13.127,2.906,23.868,16.034,23.868
	h343.852v-93.985H84.073V409.621z"/>
<path style="fill:#BF2B06;" d="M439.86,0H100.85L78.467,204.81l22.383,204.81h350.944V11.934C451.794,5.371,446.424,0,439.86,0z"/>
<path style="fill:#992B12;" d="M84.073,0C70.946,0,60.206,10.74,60.206,23.868v421.555c0-13.127,10.74-29.463,23.868-29.463h16.777
	V0H84.073z"/>
<path style="fill:#FF7424;" d="M361.642,215.152l33.281-57.634c1.599-2.771,1.6-6.183,0-8.954c-1.599-2.771-4.555-4.477-7.753-4.477
	h-66.564l-34.852-60.356c-1.599-2.77-4.555-4.475-7.753-4.475s-6.154,1.706-7.753,4.475l-34.852,60.356h-66.563
	c-3.198,0-6.155,1.706-7.753,4.477c-1.599,2.771-1.599,6.183,0,8.954l33.281,57.634l-33.281,57.634c-1.599,2.771-1.6,6.183,0,8.954
	c1.599,2.771,4.555,4.477,7.753,4.477h66.564l34.852,60.356c1.599,2.77,4.555,4.475,7.753,4.475c3.198,0,6.154-1.706,7.753-4.475
	l34.852-60.356h66.564c3.198,0,6.155-1.706,7.753-4.477c1.599-2.771,1.599-6.183,0-8.954L361.642,215.152z M371.662,161.993
	l-20.358,35.255l-20.358-35.255H371.662z M340.965,215.152l-30.697,53.158h-64.537l-30.697-53.158l30.697-53.158h64.537
	L340.965,215.152z M278.001,106.113l21.928,37.974h-43.856L278.001,106.113z M184.339,161.993h40.716l-20.358,35.255
	L184.339,161.993z M184.339,268.31l20.358-35.255l20.358,35.255H184.339z M278.001,324.191l-21.928-37.974h43.856L278.001,324.191z
	 M330.946,268.31l20.358-35.255l20.358,35.255H330.946z"/>
<path style="fill:#992B12;" d="M443.401,495.213H92.467c-8.532,0-15.474-6.942-15.474-15.474v-42.71
	c0-8.532,6.942-15.474,15.474-15.474h347.4c6.56-0.003,11.928-5.372,11.928-11.933v-4.854H92.467
	c-17.79,0-32.261,14.473-32.261,32.261v42.71c0,17.79,14.473,32.261,32.261,32.261h350.934c4.637,0,8.393-3.758,8.393-8.393
	C451.794,498.971,448.038,495.213,443.401,495.213z"/>
<g>
</g>
<g>
</g>
<g>
</g>
<g>
</g>
<g>
</g>
<g>
</g>
<g>
</g>
<g>
</g>
<g>
</g>
<g>
</g>
<g>
</g>
<g>
</g>
<g>
</g>
<g>
</g>
<g>
</g>
</svg>
