<?xml version="1.0" encoding="iso-8859-1"?>
<!-- Generator: Adobe Illustrator 19.0.0, SVG Export Plug-In . SVG Version: 6.00 Build 0)  -->
<svg version="1.1" id="Layer_1" xmlns="http://www.w3.org/2000/svg" xmlns:xlink="http://www.w3.org/1999/xlink" x="0px" y="0px"
	 viewBox="0 0 512 512" style="enable-background:new 0 0 512 512;" xml:space="preserve">
<polygon style="fill:#493123;" points="483.677,250.056 440.195,377.765 220.103,505.993 185.97,369.482 "/>
<polygon style="fill:#2A4B66;" points="220.103,369.482 220.103,505.993 0,377.765 0,275.388 "/>
<polygon style="fill:#9E6134;" points="440.195,234.496 70.178,234.496 0,275.388 220.103,403.615 440.195,275.388 "/>
<path style="fill:#2A4B66;" d="M512,233.563V335.94l-71.805,41.825V252.632C440.195,252.632,511.989,233.563,512,233.563z"/>
<polygon style="fill:#33A6F2;" points="370.017,150.847 511.989,233.563 440.195,275.388 370.017,234.496 "/>
<polygon style="fill:#2A4B66;" points="185.97,146.557 220.103,355.374 370.017,268.026 370.017,93.343 "/>
<polygon style="fill:#33A6F2;" points="70.178,93.343 70.178,268.026 220.103,355.374 220.103,146.557 "/>
<polygon style="fill:#75C8FF;" points="370.017,93.343 220.103,180.69 70.178,93.343 220.103,6.007 "/>
<g>
</g>
<g>
</g>
<g>
</g>
<g>
</g>
<g>
</g>
<g>
</g>
<g>
</g>
<g>
</g>
<g>
</g>
<g>
</g>
<g>
</g>
<g>
</g>
<g>
</g>
<g>
</g>
<g>
</g>
</svg>
