<?xml version="1.0" encoding="iso-8859-1"?>
<!-- Generator: Adobe Illustrator 19.0.0, SVG Export Plug-In . SVG Version: 6.00 Build 0)  -->
<svg version="1.1" id="Layer_1" xmlns="http://www.w3.org/2000/svg" xmlns:xlink="http://www.w3.org/1999/xlink" x="0px" y="0px"
	 viewBox="0 0 512 512" style="enable-background:new 0 0 512 512;" xml:space="preserve">
<rect x="96.687" y="133.077" style="fill:#FFD69E;" width="319.725" height="246.112"/>
<g>
	<rect x="24.172" y="133.077" style="fill:#FFC16C;" width="83.502" height="257.099"/>
	<rect x="405.425" y="122.09" style="fill:#FFC16C;" width="83.502" height="268.086"/>
</g>
<g>
	<path style="fill:#9E6134;" d="M66.803,8.79c-12.291,0-22.254,9.963-22.254,22.254c0,15.668,9.19,29.452,9.19,75.398l13.066,10.987
		l13.065-10.987c0-45.946,9.19-59.73,9.19-75.398C89.057,18.753,79.093,8.79,66.803,8.79z"/>
	<path style="fill:#9E6134;" d="M53.737,405.561c0,45.946-9.19,59.728-9.19,75.396c0,12.291,9.964,22.254,22.254,22.254
		s22.254-9.963,22.254-22.254c0-15.668-9.19-29.45-9.19-75.396l-13.065-10.987L53.737,405.561z"/>
	<path style="fill:#9E6134;" d="M461.121,106.443c0-45.946,9.19-59.73,9.19-75.398c0-12.291-9.964-22.254-22.254-22.254
		s-22.254,9.963-22.254,22.254c0,15.668,9.19,29.452,9.19,75.398l13.066,10.987L461.121,106.443z"/>
	<path style="fill:#9E6134;" d="M434.99,405.561c0,45.946-9.19,59.728-9.19,75.396c0,12.291,9.964,22.254,22.254,22.254
		c12.29,0,22.254-9.963,22.254-22.254c0-15.668-9.19-29.45-9.19-75.396l-13.065-10.987L434.99,405.561z"/>
</g>
<g>
	<path style="fill:#B2805C;" d="M121.957,122.526c0,5.831-4.727,10.556-10.556,10.556H19.346c-5.831,0-10.556-4.727-10.556-10.556
		v-5.255c0-5.831,4.727-10.556,10.556-10.556H111.4c5.831,0,10.556,4.727,10.556,10.556v5.255H121.957z"/>
	<path style="fill:#B2805C;" d="M121.957,395.006c0,5.831-4.727,10.554-10.556,10.554H19.346c-5.831,0-10.556-4.724-10.556-10.554
		v-5.255c0-5.831,4.727-10.556,10.556-10.556H111.4c5.831,0,10.556,4.727,10.556,10.556v5.255H121.957z"/>
	<path style="fill:#B2805C;" d="M503.21,122.526c0,5.831-4.727,10.556-10.556,10.556H400.6c-5.831,0-10.556-4.727-10.556-10.556
		v-5.255c0-5.831,4.727-10.556,10.556-10.556h92.053c5.831,0,10.556,4.727,10.556,10.556V122.526z"/>
	<path style="fill:#B2805C;" d="M503.21,395.006c0,5.831-4.727,10.554-10.556,10.554H400.6c-5.831,0-10.556-4.724-10.556-10.554
		v-5.255c0-5.831,4.727-10.556,10.556-10.556h92.053c5.831,0,10.556,4.727,10.556,10.556V395.006z"/>
</g>
<path d="M512,122.526v-5.255c0-10.667-8.679-19.346-19.346-19.346h-22.626c0.63-22.787,3.711-36.426,6.03-46.672
	c1.633-7.216,3.043-13.448,3.043-20.206C479.1,13.927,465.173,0.001,448.056,0.001c-17.118,0-31.044,13.926-31.044,31.044
	c0,6.758,1.41,12.99,3.043,20.206c2.318,10.247,5.4,23.885,6.03,46.672h-25.484c-10.667,0-19.346,8.679-19.346,19.346v5.255
	c0,0.597,0.036,1.184,0.09,1.767H130.657c0.053-0.582,0.09-1.17,0.09-1.767v-5.255c0-10.667-8.679-19.346-19.346-19.346H88.774
	c0.63-22.787,3.711-36.426,6.03-46.672c1.633-7.216,3.043-13.448,3.043-20.206c0-17.118-13.927-31.044-31.044-31.044
	c-17.118,0-31.044,13.926-31.044,31.044c0,6.758,1.41,12.99,3.043,20.206c2.318,10.247,5.4,23.885,6.03,46.672H19.346
	C8.679,97.923,0,106.602,0,117.269v5.255c0,9.309,6.61,17.099,15.382,18.934v229.357C6.61,372.651,0,380.442,0,389.75v5.255
	c0,10.666,8.679,19.344,19.346,19.344h25.476c-0.646,22.625-3.713,36.195-6.021,46.4c-1.633,7.216-3.043,13.448-3.043,20.206
	c0,17.118,13.926,31.044,31.044,31.044s31.044-13.926,31.044-31.044c0-6.758-1.41-12.99-3.043-20.206
	c-2.309-10.205-5.376-23.776-6.021-46.4H111.4c10.667,0,19.346-8.678,19.346-19.344v-5.255c0-0.597-0.036-1.184-0.09-1.767h250.686
	c-0.053,0.582-0.09,1.17-0.09,1.767v5.255c0,10.666,8.679,19.344,19.346,19.344h25.476c-0.646,22.625-3.713,36.195-6.021,46.4
	c-1.633,7.216-3.043,13.448-3.043,20.206c0,17.118,13.926,31.044,31.044,31.044c17.118,0,31.044-13.926,31.044-31.044
	c0-6.758-1.41-12.99-3.043-20.206c-2.309-10.205-5.376-23.776-6.021-46.4h22.618c10.667,0,19.346-8.678,19.346-19.344v-5.255
	c0-8.914-6.067-16.418-14.283-18.652V141.176C505.933,138.943,512,131.438,512,122.526z M437.2,47.372
	c-1.515-6.696-2.609-11.532-2.609-16.327c0-7.424,6.041-13.465,13.465-13.465c7.424,0,13.465,6.041,13.465,13.465
	c0,4.795-1.094,9.631-2.609,16.327c-2.502,11.059-5.836,25.804-6.471,50.552h-8.768C443.036,73.176,439.703,58.43,437.2,47.372z
	 M398.833,122.526v-5.255c0-0.975,0.793-1.767,1.767-1.767h92.053c0.975,0,1.767,0.793,1.767,1.767v5.255
	c0,0.975-0.793,1.767-1.767,1.767h-3.726h-83.502h-4.826C399.626,124.292,398.833,123.499,398.833,122.526z M480.137,370.404
	h-65.923V141.872h65.923V370.404z M32.961,141.872h65.923v228.532H32.961V141.872z M116.464,141.872h280.172v228.532H116.464
	V141.872z M55.946,47.372c-1.515-6.696-2.609-11.532-2.609-16.327c0-7.424,6.041-13.465,13.466-13.465
	c7.424,0,13.465,6.041,13.465,13.465c0,4.795-1.094,9.631-2.609,16.327c-2.502,11.059-5.836,25.804-6.471,50.552h-8.768
	C61.783,73.176,58.449,58.43,55.946,47.372z M17.579,117.269c0-0.975,0.793-1.767,1.767-1.767H111.4
	c0.975,0,1.767,0.793,1.767,1.767v5.255c0,0.975-0.793,1.767-1.767,1.767h-3.726H24.172h-4.826c-0.975,0-1.767-0.793-1.767-1.767
	V117.269z M77.658,464.631c1.515,6.694,2.609,11.532,2.609,16.326c0,7.424-6.041,13.465-13.465,13.465
	c-7.425,0-13.465-6.041-13.465-13.465c0-4.795,1.094-9.631,2.609-16.326c2.493-11.017,5.811-25.697,6.464-50.28h8.783
	C71.847,438.934,75.165,453.613,77.658,464.631z M113.167,389.75v5.255c0,0.973-0.793,1.765-1.767,1.765H19.346
	c-0.975,0-1.767-0.792-1.767-1.765v-5.255c0-0.975,0.793-1.767,1.767-1.767h4.826h83.502h3.727
	C112.374,387.983,113.167,388.777,113.167,389.75z M458.911,464.631c1.515,6.694,2.609,11.532,2.609,16.326
	c0,7.424-6.041,13.465-13.465,13.465c-7.425,0-13.465-6.041-13.465-13.465c0-4.795,1.094-9.631,2.609-16.326
	c2.493-11.017,5.811-25.697,6.464-50.28h8.783C453.1,438.934,456.418,453.613,458.911,464.631z M494.421,395.006
	c0,0.973-0.793,1.764-1.767,1.764H400.6c-0.975,0-1.767-0.792-1.767-1.764v-5.255c0-0.975,0.793-1.767,1.767-1.767h4.824h83.502
	h3.727c0.975,0,1.767,0.793,1.767,1.767V395.006z"/>
<path d="M284.257,191.094h65.837c4.854,0,8.79-3.936,8.79-8.79c0-4.854-3.936-8.79-8.79-8.79h-65.837c-4.854,0-8.79,3.936-8.79,8.79
	C275.467,187.159,279.403,191.094,284.257,191.094z"/>
<path d="M350.095,222.737h-65.837c-4.854,0-8.79,3.936-8.79,8.79s3.936,8.79,8.79,8.79h65.837c4.854,0,8.79-3.936,8.79-8.79
	S354.949,222.737,350.095,222.737z"/>
<path d="M350.095,271.959h-65.837c-4.854,0-8.79,3.936-8.79,8.79c0,4.854,3.936,8.79,8.79,8.79h65.837c4.854,0,8.79-3.936,8.79-8.79
	C358.885,275.895,354.949,271.959,350.095,271.959z"/>
<path d="M350.095,321.182h-65.837c-4.854,0-8.79,3.936-8.79,8.79c0,4.854,3.936,8.79,8.79,8.79h65.837c4.854,0,8.79-3.936,8.79-8.79
	C358.885,325.117,354.949,321.182,350.095,321.182z"/>
<path d="M228.842,173.515h-65.837c-4.854,0-8.79,3.936-8.79,8.79c0,4.854,3.936,8.79,8.79,8.79h65.837c4.854,0,8.79-3.936,8.79-8.79
	C237.632,177.45,233.696,173.515,228.842,173.515z"/>
<path d="M228.842,222.737h-65.837c-4.854,0-8.79,3.936-8.79,8.79s3.936,8.79,8.79,8.79h65.837c4.854,0,8.79-3.936,8.79-8.79
	S233.696,222.737,228.842,222.737z"/>
<path d="M228.842,271.959h-65.837c-4.854,0-8.79,3.936-8.79,8.79c0,4.854,3.936,8.79,8.79,8.79h65.837c4.854,0,8.79-3.936,8.79-8.79
	C237.632,275.895,233.696,271.959,228.842,271.959z"/>
<path d="M228.842,321.182h-65.837c-4.854,0-8.79,3.936-8.79,8.79c0,4.854,3.936,8.79,8.79,8.79h65.837c4.854,0,8.79-3.936,8.79-8.79
	C237.632,325.117,233.696,321.182,228.842,321.182z"/>
<g>
</g>
<g>
</g>
<g>
</g>
<g>
</g>
<g>
</g>
<g>
</g>
<g>
</g>
<g>
</g>
<g>
</g>
<g>
</g>
<g>
</g>
<g>
</g>
<g>
</g>
<g>
</g>
<g>
</g>
</svg>
